<?xml version="1.0" ?><svg height="48px" version="1.1" viewBox="0 0 48 48" width="48px" xmlns="http://www.w3.org/2000/svg" xmlns:xlink="http://www.w3.org/1999/xlink"><title/><g fill="none" fill-rule="evenodd" id="arrow-up" stroke="none" stroke-width="1"><path d="M16.0839749,20.2226499 L16.0434343,20.2953753 C15.8973068,20.6162383 16.1291771,21 16.5,21 L22,21 L22,39.5 C22,39.7761424 22.2238576,40 22.5,40 L26.5,40 L26.5898756,39.9919443 C26.8231248,39.9496084 27,39.7454599 27,39.5 L27,21 L32.5,21 C32.8993477,21 33.1375434,20.5549273 32.9160251,20.2226499 L24.9160251,8.2226499 C24.7181141,7.92578337 24.2818859,7.92578337 24.0839749,8.2226499 L16.0839749,20.2226499 Z M24.5,9.402 L31.565,20 L26.5,20 L26.4101244,20.0080557 C26.1768752,20.0503916 26,20.2545401 26,20.5 L26,39 L23,39 L23,20.5 L22.9919443,20.4101244 C22.9496084,20.1768752 22.7454599,20 22.5,20 L17.434,20 L24.5,9.402 Z" fill="#000000" fill-rule="nonzero" id="Path"/></g></svg>